<?xml version="1.0" encoding="UTF-8" standalone="no"?>
<!-- Created with Inkscape (http://www.inkscape.org/) -->

<svg
   xmlns:dc="http://purl.org/dc/elements/1.1/"
   xmlns:cc="http://creativecommons.org/ns#"
   xmlns:rdf="http://www.w3.org/1999/02/22-rdf-syntax-ns#"
   xmlns:svg="http://www.w3.org/2000/svg"
   xmlns="http://www.w3.org/2000/svg"
   xmlns:sodipodi="http://sodipodi.sourceforge.net/DTD/sodipodi-0.dtd"
   xmlns:inkscape="http://www.inkscape.org/namespaces/inkscape"
   inkscape:version="0.91 r13725"
   version="1.1"
   id="svg2"
   viewBox="0 0 203.53269 59.63798"
   height="16.831163mm"
   width="57.441448mm"
   sodipodi:docname="logo.svg"
   style="enable-background:new">
  <sodipodi:namedview
     inkscape:snap-center="false"
     inkscape:object-nodes="true"
     inkscape:snap-global="true"
     inkscape:window-maximized="1"
     inkscape:window-y="1"
     inkscape:window-x="0"
     inkscape:window-height="775"
     inkscape:window-width="1440"
     inkscape:snap-midpoints="true"
     showgrid="false"
     inkscape:current-layer="layer2"
     inkscape:document-units="px"
     inkscape:cy="34.191339"
     inkscape:cx="139.02919"
     inkscape:zoom="5.6568542"
     inkscape:pageshadow="2"
     inkscape:pageopacity="0"
     borderopacity="1"
     bordercolor="#000000"
     pagecolor="#ffffff"
     id="base"
     fit-margin-top="0"
     fit-margin-left="0"
     fit-margin-right="0"
     fit-margin-bottom="0" />
  <defs
     id="defs4">
    <inkscape:perspective
       id="perspective8514"
       inkscape:persp3d-origin="372.04725 : 350.7874 : 1"
       inkscape:vp_z="744.09451 : 526.18111 : 1"
       inkscape:vp_y="0 : 1000 : 0"
       inkscape:vp_x="0 : 526.18111 : 1"
       sodipodi:type="inkscape:persp3d" />
    <filter
       id="filter8469"
       style="color-interpolation-filters:sRGB"
       inkscape:menu-tooltip="Soft, cushion-like bevel with matte highlights"
       inkscape:menu="Bevels"
       inkscape:label="Bloom">
      <feGaussianBlur
         id="feGaussianBlur8471"
         stdDeviation="2.2"
         in="SourceAlpha"
         result="result1" />
      <feSpecularLighting
         id="feSpecularLighting8473"
         surfaceScale="5"
         specularConstant="2"
         specularExponent="18.10000038"
         result="result0">
        <feDistantLight
           id="feDistantLight8475"
           elevation="24"
           azimuth="225" />
      </feSpecularLighting>
      <feComposite
         id="feComposite8477"
         in2="SourceAlpha"
         operator="in"
         result="result6" />
      <feMorphology
         id="feMorphology8479"
         operator="dilate"
         radius="5.7" />
      <feGaussianBlur
         id="feGaussianBlur8481"
         stdDeviation="5.7"
         result="result11" />
      <feDiffuseLighting
         id="feDiffuseLighting8483"
         in="result1"
         diffuseConstant="2"
         result="result3"
         surfaceScale="5">
        <feDistantLight
           id="feDistantLight8485"
           azimuth="225"
           elevation="25" />
      </feDiffuseLighting>
      <feBlend
         id="feBlend8487"
         in2="SourceGraphic"
         in="result3"
         mode="multiply"
         result="result7" />
      <feComposite
         id="feComposite8489"
         result="result91"
         in2="SourceAlpha"
         operator="in"
         in="result7" />
      <feBlend
         id="feBlend8491"
         in2="result91"
         in="result6"
         mode="lighten"
         result="result9" />
      <feComposite
         id="feComposite8493"
         in2="result9"
         in="result11" />
    </filter>
    <filter
       id="filter8608"
       style="color-interpolation-filters:sRGB"
       inkscape:menu-tooltip="Glowing image content without blurring it"
       inkscape:menu="Image Effects"
       inkscape:label="Soft Focus Lens">
      <feGaussianBlur
         id="feGaussianBlur8610"
         result="result3"
         stdDeviation="5" />
      <feColorMatrix
         id="feColorMatrix8612"
         result="result7"
         values="1 0 0 0 0 0 1 0 0 0 0 0 1 0 0 0 0 0 50 0 " />
      <feComposite
         id="feComposite8614"
         result="result9"
         in2="SourceGraphic"
         operator="in" />
      <feComposite
         id="feComposite8616"
         result="result1"
         k3="0.5"
         k1="0.5"
         in="result9"
         operator="arithmetic"
         in2="result7"
         k2="0"
         k4="0" />
      <feBlend
         id="feBlend8618"
         in="SourceGraphic"
         mode="screen"
         result="result5"
         in2="result1" />
      <feBlend
         id="feBlend8620"
         result="result6"
         in="result5"
         mode="darken"
         in2="result5" />
      <feComposite
         id="feComposite8622"
         result="result8"
         operator="in"
         in2="SourceGraphic" />
    </filter>
  </defs>
  <metadata
     id="metadata7">
    <rdf:RDF>
      <cc:Work
         rdf:about="">
        <dc:format>image/svg+xml</dc:format>
        <dc:type
           rdf:resource="http://purl.org/dc/dcmitype/StillImage" />
        <dc:title />
      </cc:Work>
    </rdf:RDF>
  </metadata>
  <g
     inkscape:groupmode="layer"
     id="layer8"
     inkscape:label="cog"
     style="display:none"
     transform="translate(-65.717312,-73.862183)">
    <g
       style="display:inline"
       id="g23901"
       transform="matrix(0,0.3138106,-0.3138106,0,332.8575,-9.854025)">
      <g
         style="fill:#000000"
         transform="translate(289.91437,67.300925)"
         inkscape:label="Gear6"
         id="g23844">
        <path
           inkscape:connector-curvature="0"
           d="m 12.84917,-3.46764 6.13178,-1.65481 0.30211,-0.04443 7.22532,2.75666 0,4.82044 -7.22532,2.75666 -0.30211,-0.04443 -6.13178,-1.65481 -3.42151,5.92625 4.49898,4.48287 0.18954,0.23942 1.22532,7.63564 -4.17462,2.41022 -6,-4.87898 -0.11257,-0.28385 -1.63279,-6.13768 -6.84304,0 -1.63279,6.13768 -0.11257,0.28385 -6,4.87898 -4.17462,-2.41022 1.22532,-7.63564 0.18954,-0.23942 4.49898,-4.48287 -3.42151,-5.92625 -6.13178,1.65481 -0.30211,0.04443 -7.22532,-2.75666 0,-4.82044 7.22532,-2.75666 0.30211,0.04443 6.13178,1.65481 3.42151,-5.92625 -4.49898,-4.48287 -0.18954,-0.23942 -1.22532,-7.63564 4.17462,-2.41022 6,4.87898 0.11257,0.28385 1.63279,6.13768 6.84304,0 1.63279,-6.13768 0.11257,-0.28385 6,-4.87898 4.17462,2.41022 -1.22532,7.63564 -0.18954,0.23942 -4.49898,4.48287 z"
           style="fill:#000000;stroke:#000000;stroke-width:1"
           id="path23846" />
        <circle
           r="20.551182"
           cy="0"
           cx="0"
           style="fill:#000000;stroke:#000000;stroke-width:1"
           id="path23848" />
      </g>
      <ellipse
         ry="14.274976"
         rx="14.824013"
         cy="67.237183"
         cx="289.875"
         id="path23899"
         style="opacity:1;fill:#ffffff;fill-opacity:1;fill-rule:nonzero;stroke-width:0;stroke-miterlimit:4;stroke-dasharray:none" />
    </g>
  </g>
  <g
     inkscape:groupmode="layer"
     id="layer9"
     inkscape:label="hole"
     style="display:inline"
     transform="translate(-65.717312,-73.862183)">
    <path
       style="opacity:1;fill:#000000;fill-opacity:1;fill-rule:nonzero;stroke-width:0;stroke-miterlimit:4;stroke-dasharray:none"
       clip-path="none"
       d="M 197.5332 0 A 6 5.75 0 0 0 191.5332 5.75 A 6 5.75 0 0 0 196.88477 11.458984 L 197.74219 10.28125 A 4.2132354 4.016129 0 0 1 196.80469 10.386719 A 4.2132354 4.016129 0 0 1 192.5918 6.3710938 A 4.2132354 4.016129 0 0 1 196.80469 2.3554688 A 4.2132354 4.016129 0 0 1 201.01758 6.3710938 A 4.2132354 4.016129 0 0 1 198.07422 10.195312 L 197.13477 11.486328 A 6 5.75 0 0 0 197.5332 11.5 A 6 5.75 0 0 0 203.5332 5.75 A 6 5.75 0 0 0 197.5332 0 z "
       id="path23948"
       transform="translate(65.717312,73.862183)" />
  </g>
  <g
     style="display:inline;opacity:1"
     inkscape:label="Pil"
     id="layer2"
     inkscape:groupmode="layer"
     transform="translate(-65.717312,-73.862183)">
    <g
       transform="translate(-3.3536003e-7,4.0000005)"
       id="g8650">
      <path
         style="display:inline;fill:#030000;fill-opacity:1;fill-rule:nonzero;stroke-width:0;stroke-miterlimit:4;stroke-dasharray:none"
         d="m 239.00603,107.60685 -22.32281,2.31229 -2.34923,2.85881 22.17814,-2.21664 z"
         id="rect4284"
         inkscape:connector-curvature="0"
         sodipodi:nodetypes="ccccc" />
      <path
         style="fill:#030000;fill-opacity:1;fill-rule:nonzero;stroke-width:0;stroke-miterlimit:4;stroke-dasharray:none"
         d="m 266.4219,76.077651 -29.66127,40.825229 c -0.78525,1.08082 -1.68301,1.75797 -2.0129,1.5183 l -0.33871,-0.24609 -0.33871,-0.24609 0.44479,-0.5675 c 1.91159,-2.84514 1.22649,-3.21521 1.22649,-3.21521 0,0 -0.65456,-0.35456 -2.65726,2.29112 l -0.36884,0.50726 -0.33871,-0.24609 -0.3387,-0.24608 c -0.32989,-0.23968 0.0367,-1.30275 0.82196,-2.38356 L 262.5213,73.243703 c 0.78526,-1.080811 1.68301,-1.757969 2.0129,-1.518291 l 2.70969,1.968703 c 0.32988,0.239677 -0.0367,1.302744 -0.82196,2.383557 z"
         id="rect4157"
         inkscape:connector-curvature="0"
         sodipodi:nodetypes="ssscccccccssssss" />
      <path
         style="display:inline;fill:#030000;fill-opacity:1;fill-rule:nonzero;stroke-width:0;stroke-miterlimit:4;stroke-dasharray:none"
         d="m 241.873,102.65822 -21.3952,1.99152 -2.29462,2.82473 21.25523,-1.89797 z"
         id="rect4284-2"
         inkscape:connector-curvature="0"
         sodipodi:nodetypes="ccccc" />
      <path
         style="display:inline;fill:#030000;fill-opacity:1;fill-rule:nonzero;stroke-width:0;stroke-miterlimit:4;stroke-dasharray:none"
         d="m 244.80544,98.145944 -21.07589,1.991516 -2.26037,2.82473 20.938,-1.89796 z"
         id="rect4284-2-6"
         inkscape:connector-curvature="0"
         sodipodi:nodetypes="ccccc" />
      <path
         style="display:inline;fill:#030000;fill-opacity:1;fill-rule:nonzero;stroke-width:0;stroke-miterlimit:4;stroke-dasharray:none"
         d="m 248.33925,93.770727 -21.55487,1.99152 -2.31173,2.824735 21.41383,-1.897966 z"
         id="rect4284-2-6-0"
         inkscape:connector-curvature="0"
         sodipodi:nodetypes="ccccc" />
      <path
         style="display:inline;fill:#030000;fill-opacity:1;fill-rule:nonzero;stroke-width:0;stroke-miterlimit:4;stroke-dasharray:none"
         d="m 251.33502,89.058978 -20.88332,2.312289 -2.19774,2.858814 20.74798,-2.216646 z"
         id="rect4284-2-6-0-1"
         inkscape:connector-curvature="0"
         sodipodi:nodetypes="ccccc" />
      <a
         style="display:inline"
         id="a8338"
         transform="matrix(0.9,0,0,0.9,21.447081,11.265742)">
        <path
           sodipodi:nodetypes="ccccc"
           inkscape:connector-curvature="0"
           id="rect4284-5"
           d="m 264.20743,111.18915 -5.29235,-19.490509 2.12792,-3.163265 5.34083,19.329904 z"
           style="fill:#030000;fill-opacity:1;fill-rule:nonzero;stroke-width:0;stroke-miterlimit:4;stroke-dasharray:none" />
      </a>
      <path
         style="display:inline;fill:#030000;fill-opacity:1;fill-rule:nonzero;stroke-width:0;stroke-miterlimit:4;stroke-dasharray:none"
         d="m 256.29682,115.4552 -4.76313,-17.541466 1.91514,-2.846938 4.80676,17.396904 z"
         id="rect4284-2-0"
         inkscape:connector-curvature="0"
         sodipodi:nodetypes="ccccc" />
      <path
         style="display:inline;fill:#030000;fill-opacity:1;fill-rule:nonzero;stroke-width:0;stroke-miterlimit:4;stroke-dasharray:none"
         d="m 252.9973,120.09052 -4.76311,-17.54146 1.91513,-2.846933 4.80676,17.396913 z"
         id="rect4284-2-6-2"
         inkscape:connector-curvature="0"
         sodipodi:nodetypes="ccccc" />
      <path
         style="display:inline;fill:#030000;fill-opacity:1;fill-rule:nonzero;stroke-width:0;stroke-miterlimit:4;stroke-dasharray:none"
         d="m 249.09537,124.92559 -4.7631,-17.54146 1.91512,-2.84694 4.80674,17.39692 z"
         id="rect4284-2-6-0-9"
         inkscape:connector-curvature="0"
         sodipodi:nodetypes="ccccc" />
      <path
         style="display:inline;fill:#030000;fill-opacity:1;fill-rule:nonzero;stroke-width:0;stroke-miterlimit:4;stroke-dasharray:none"
         d="m 245.94439,129.50016 -4.7631,-17.54145 1.91512,-2.84695 4.80674,17.39692 z"
         id="rect4284-2-6-0-1-9"
         inkscape:connector-curvature="0"
         sodipodi:nodetypes="ccccc" />
    </g>
  </g>
  <g
     inkscape:groupmode="layer"
     id="layer3"
     inkscape:label="texten"
     style="display:inline"
     transform="translate(-65.717312,-73.862183)">
    <text
       xml:space="preserve"
       style="font-style:normal;font-variant:normal;font-weight:500;font-stretch:normal;font-size:40px;line-height:125%;font-family:'Apple Chancery';-inkscape-font-specification:'Apple Chancery, Medium';text-align:start;letter-spacing:0px;word-spacing:0px;writing-mode:lr-tb;text-anchor:start;display:inline;opacity:1;fill:#000000;fill-opacity:1;stroke:none;stroke-width:1px;stroke-linecap:butt;stroke-linejoin:miter;stroke-opacity:1"
       x="63.354031"
       y="110.21044"
       id="text8123"
       sodipodi:linespacing="125%"><tspan
         sodipodi:role="line"
         x="63.354031"
         y="110.21044"
         id="tspan8125"><tspan
           x="63.354031"
           y="110.21044"
           style="font-style:normal;font-variant:normal;font-weight:500;font-stretch:normal;font-size:40px;line-height:125%;font-family:'Apple Chancery';-inkscape-font-specification:'Apple Chancery, Medium';text-align:start;writing-mode:lr-tb;text-anchor:start"
           id="tspan8127">Nock-Off </tspan></tspan></text>
  </g>
</svg>
